<svg xmlns="http://www.w3.org/2000/svg" xmlns:xlink="http://www.w3.org/1999/xlink" width="100" zoomAndPan="magnify" viewBox="0 0 75 74.999997" height="100" preserveAspectRatio="xMidYMid meet" version="1.0"><defs><g/><clipPath id="a548b334e2"><path d="M 5.152344 3.1875 L 69.636719 3.1875 L 69.636719 51.9375 L 5.152344 51.9375 Z M 5.152344 3.1875 " clip-rule="nonzero"/></clipPath></defs><path fill="#020202" d="M 36.511719 17.859375 C 34.683594 19.054688 33.277344 20.800781 31.972656 22.53125 C 33.582031 21 34.933594 19.414062 36.511719 17.859375 " fill-opacity="1" fill-rule="evenodd"/><path fill="#020202" d="M 10.28125 21.507812 C 11.464844 20.375 12.371094 19.976562 13.902344 19.417969 C 12.171875 19.359375 10.980469 19.871094 10.28125 21.507812 " fill-opacity="1" fill-rule="evenodd"/><g clip-path="url(#a548b334e2)"><path fill="#020202" d="M 67.113281 35.835938 C 64.710938 45.769531 55.917969 48.304688 46.488281 49.910156 C 37.738281 51.394531 29.089844 50.574219 26.636719 49.105469 C 24.796875 48.007812 25.035156 38.730469 25.132812 34.492188 C 25.148438 34.003906 25.15625 33.589844 25.167969 33.25 C 25.167969 33.070312 25.179688 32.898438 25.199219 32.738281 C 26.722656 33.027344 30.984375 33.234375 31.550781 32.527344 C 31.296875 32.203125 30.449219 32.222656 30.324219 32.203125 C 28.664062 31.929688 26.976562 31.300781 26.367188 30.53125 C 27.042969 29.910156 27.945312 29.398438 28.933594 28.730469 C 29.207031 28.542969 29.503906 28.347656 29.953125 28.027344 C 32.398438 26.324219 39.253906 18.324219 41.4375 15.746094 C 41.921875 15.171875 41.707031 14.609375 41.433594 14.324219 C 41.441406 14.308594 41.441406 14.292969 41.441406 14.28125 C 41.4375 14.234375 41.371094 14.207031 41.269531 14.191406 C 41.230469 14.164062 41.195312 14.144531 41.160156 14.136719 C 41.109375 14.121094 41.042969 14.136719 40.964844 14.175781 C 40.585938 14.179688 40.070312 14.238281 39.773438 14.261719 C 36.226562 14.527344 18.644531 16.441406 13.335938 17.472656 C 12.785156 17.582031 12.257812 17.617188 11.773438 17.636719 C 11.761719 17.632812 5.460938 16.816406 9.929688 11.546875 C 10.15625 11.285156 10.398438 11.03125 10.65625 10.789062 C 15.304688 6.433594 25.597656 4.285156 36.476562 4.066406 C 43.050781 3.9375 49.589844 4.984375 54.699219 6.304688 C 58.402344 7.539062 61.871094 8.78125 64.3125 10.984375 C 64.625 11.390625 64.90625 11.8125 65.15625 12.191406 C 66.730469 14.566406 67.15625 16.949219 66.242188 20.125 C 63.414062 29.949219 46.1875 32.738281 37.519531 32.996094 C 35.675781 33.046875 37.1875 32.972656 35.378906 33.070312 C 44.847656 34.453125 64.507812 31.21875 67.726562 20.695312 C 67.757812 20.597656 67.785156 20.5 67.8125 20.402344 C 67.800781 20.757812 67.785156 21.125 67.769531 21.511719 C 67.710938 23.007812 67.632812 24.757812 67.777344 26.90625 C 67.972656 29.78125 67.816406 32.929688 67.113281 35.835938 Z M 22.199219 19.457031 C 22.300781 19.699219 22.269531 19.902344 22.195312 20.25 C 22.382812 20.230469 22.488281 20.074219 22.519531 19.882812 C 22.621094 20.257812 22.488281 20.671875 21.878906 20.449219 C 21.75 20.355469 21.660156 20.1875 21.660156 19.925781 C 21.660156 19.394531 21.984375 19.371094 22.199219 19.457031 Z M 10.414062 36.605469 C 9.96875 36.320312 9.640625 35.507812 9.261719 33.972656 C 8.8125 32.136719 8.042969 27.253906 8.4375 23.421875 C 8.691406 21.015625 9.667969 19.410156 10.707031 19.0625 L 10.933594 18.988281 C 11.730469 18.714844 12.113281 18.585938 13.5 18.320312 C 18.753906 17.300781 36.253906 15.390625 39.828125 15.121094 C 39.855469 15.117188 39.882812 15.113281 39.914062 15.109375 C 39.910156 15.109375 39.910156 15.113281 39.90625 15.117188 C 39.761719 15.289062 39.589844 15.492188 39.398438 15.71875 C 34.925781 15.601562 18.542969 17.789062 14.589844 19.179688 C 22.617188 17.839844 31.28125 16.644531 39.375 15.746094 C 39.144531 16.019531 38.882812 16.324219 38.59375 16.660156 C 32.566406 16.964844 19.136719 18.839844 15.613281 20.082031 C 17.550781 19.757812 19.53125 19.441406 21.527344 19.136719 C 21.449219 19.1875 21.378906 19.246094 21.320312 19.308594 C 21.171875 19.476562 21.082031 19.707031 21.082031 19.957031 C 21.082031 20.082031 21.097656 20.203125 21.128906 20.316406 C 17.273438 22.777344 13.214844 25.132812 10.085938 28.511719 C 13.710938 25.710938 17.789062 23.320312 21.128906 20.316406 C 21.164062 20.4375 21.21875 20.546875 21.296875 20.632812 C 21.398438 20.75 21.511719 20.828125 21.617188 20.875 C 22.433594 21.394531 23.65625 20.179688 22.847656 19.273438 C 22.765625 19.183594 22.671875 19.109375 22.554688 19.0625 C 22.515625 19.035156 22.472656 19.015625 22.429688 19 C 25.480469 18.542969 28.570312 18.109375 31.640625 17.707031 C 28.339844 19.421875 23.136719 22.84375 20.71875 24.859375 C 23.414062 23.628906 29 19.769531 32.03125 17.65625 C 34.175781 17.378906 36.308594 17.117188 38.414062 16.875 C 35.589844 20.167969 30.648438 25.777344 28.695312 27.148438 C 28.429688 27.339844 28.046875 27.59375 27.6875 27.839844 C 25.335938 29.429688 23.621094 30.242188 23.574219 33.234375 C 23.570312 33.546875 23.558594 33.96875 23.546875 34.46875 C 23.542969 34.710938 23.535156 34.972656 23.527344 35.246094 C 20.480469 35.734375 11.5625 37.347656 10.414062 36.605469 Z M 6.007812 24.804688 L 6.011719 24.5 C 6.027344 21.714844 6.421875 18.886719 6.867188 17.730469 C 7.332031 18.3125 7.917969 18.707031 8.363281 18.945312 C 7.707031 19.953125 7.316406 21.535156 7.128906 23.332031 C 6.722656 27.257812 7.398438 32.285156 7.867188 34.179688 C 7.910156 34.34375 7.949219 34.5 7.992188 34.652344 C 6.105469 32.46875 6.332031 29.546875 6.007812 24.804688 Z M 69.542969 26.835938 C 69.398438 24.726562 69.46875 23.019531 69.535156 21.558594 C 69.585938 20.1875 69.636719 19.03125 69.5 17.953125 L 69.464844 17.636719 C 68.832031 12.359375 64.765625 8.601562 59.566406 6.441406 C 51.828125 3.226562 41.59375 3.105469 36.460938 3.210938 C 25.394531 3.429688 13.894531 5.648438 9.082031 10.164062 C 8.785156 10.433594 8.519531 10.714844 8.277344 10.996094 C 7.101562 12.386719 6.484375 13.566406 6.242188 14.5625 L 6.238281 14.5625 C 6.234375 14.570312 5.199219 16.578125 5.15625 24.496094 L 5.15625 24.800781 C 5.117188 30.523438 5.574219 35.246094 9.527344 37.480469 C 9.917969 37.75 10.304688 37.804688 10.65625 37.851562 C 10.773438 37.867188 10.886719 37.882812 10.972656 37.90625 C 11.703125 38.121094 20.65625 36.988281 23.5 36.621094 C 23.421875 41.578125 23.527344 49.324219 25.570312 50.542969 C 28.203125 52.117188 37.6875 52.496094 46.664062 50.96875 C 55.972656 49.378906 66.453125 46.332031 68.925781 36.089844 C 69.664062 33.054688 69.742188 29.796875 69.542969 26.835938 " fill-opacity="1" fill-rule="evenodd"/></g><path fill="#020202" d="M 15.890625 25.597656 C 16.15625 25.296875 16.519531 25.09375 16.917969 25.042969 C 17.375 25.828125 17.179688 26.675781 16.800781 27.433594 C 17.789062 26.851562 17.464844 25.347656 17.074219 25.035156 C 17.082031 25.035156 17.09375 25.03125 17.105469 25.03125 C 17.160156 25.03125 17.207031 25.035156 17.257812 25.039062 C 17.46875 25.113281 17.628906 25.253906 17.816406 25.457031 C 18.058594 26.4375 17.65625 27.757812 16.667969 28.3125 C 17.800781 28.304688 18.160156 26.847656 18.070312 25.816406 C 18.824219 27.191406 17.71875 28.914062 16.585938 28.8125 C 16.339844 28.738281 16.105469 28.574219 15.890625 28.296875 C 15.582031 27.949219 15.390625 27.476562 15.390625 26.945312 C 15.390625 26.417969 15.582031 25.945312 15.890625 25.597656 Z M 16.738281 29.566406 C 17.460938 29.757812 18.171875 29.511719 18.679688 28.953125 C 19.492188 28.054688 19.777344 26.335938 18.714844 25.136719 C 18.367188 24.746094 17.90625 24.484375 17.390625 24.410156 C 17.222656 24.367188 17.050781 24.34375 16.878906 24.34375 C 16.246094 24.34375 15.679688 24.628906 15.269531 25.09375 C 14.855469 25.550781 14.601562 26.191406 14.601562 26.902344 C 14.601562 27.613281 14.855469 28.25 15.269531 28.710938 C 15.726562 29.230469 16.238281 29.5 16.738281 29.566406 " fill-opacity="1" fill-rule="evenodd"/><path fill="#020202" d="M 12.386719 32.644531 C 12.203125 32.691406 11.992188 32.695312 11.796875 32.625 C 11.601562 32.476562 11.460938 32.21875 11.460938 31.816406 C 11.460938 31.527344 11.566406 31.261719 11.730469 31.074219 C 11.828125 30.964844 11.933594 30.886719 12.042969 30.832031 C 12.230469 31.242188 12.109375 31.628906 11.882812 32.066406 C 12.257812 32.1875 12.566406 31.210938 12.273438 30.765625 C 12.296875 30.761719 12.320312 30.761719 12.34375 30.761719 C 12.5 30.835938 12.652344 30.925781 12.648438 31.003906 C 12.648438 31.007812 12.648438 31.007812 12.644531 31.007812 C 12.542969 31.835938 12.785156 31.683594 12.277344 32.300781 C 12.78125 32.125 12.949219 31.75 12.933594 31.386719 C 13.109375 32.011719 12.882812 32.511719 12.386719 32.644531 Z M 12.835938 30.496094 C 12.652344 30.375 12.433594 30.304688 12.210938 30.304688 C 11.863281 30.304688 11.550781 30.460938 11.324219 30.714844 C 11.09375 30.96875 10.953125 31.324219 10.953125 31.710938 C 10.953125 32.101562 11.050781 32.5 11.277344 32.753906 C 11.433594 32.925781 11.605469 33.050781 11.777344 33.125 C 12.300781 33.457031 12.898438 33.324219 13.265625 32.921875 C 13.71875 32.421875 13.871094 31.476562 13.289062 30.816406 C 13.160156 30.675781 13.007812 30.566406 12.835938 30.496094 " fill-opacity="1" fill-rule="evenodd"/><path fill="#020202" d="M 13.261719 23.03125 C 13.0625 22.886719 12.921875 22.628906 12.921875 22.222656 C 12.921875 21.933594 13.023438 21.675781 13.191406 21.480469 C 13.351562 21.304688 13.535156 21.199219 13.722656 21.175781 C 14.058594 21.527344 13.941406 22.011719 13.820312 22.574219 C 14.066406 22.679688 14.3125 21.769531 14.101562 21.25 C 14.140625 21.285156 14.179688 21.320312 14.214844 21.359375 C 14.492188 21.871094 14.515625 22.34375 14.34375 22.664062 C 14.101562 22.804688 13.867188 22.945312 13.640625 23.082031 C 13.511719 23.089844 13.382812 23.078125 13.261719 23.03125 Z M 14.726562 23.328125 C 14.945312 23.082031 15.09375 22.730469 15.121094 22.359375 C 15.355469 22.183594 15.601562 22 15.855469 21.804688 C 15.601562 21.949219 15.359375 22.082031 15.125 22.214844 C 15.121094 21.871094 15.007812 21.519531 14.746094 21.226562 C 14.621094 21.089844 14.46875 20.972656 14.292969 20.90625 C 14.109375 20.785156 13.894531 20.710938 13.667969 20.710938 C 13.320312 20.710938 13.011719 20.871094 12.785156 21.125 C 12.554688 21.378906 12.414062 21.730469 12.414062 22.121094 C 12.414062 22.507812 12.511719 22.902344 12.742188 23.160156 C 12.84375 23.277344 12.953125 23.367188 13.070312 23.4375 C 12.019531 24.117188 11.078125 24.847656 9.859375 26.003906 C 11.210938 25.042969 12.246094 24.378906 13.375 23.601562 C 13.863281 23.835938 14.386719 23.699219 14.726562 23.328125 " fill-opacity="1" fill-rule="evenodd"/><path fill="#020202" d="M 26.773438 24.042969 C 27 24.410156 26.941406 24.671875 26.921875 25.191406 C 27.136719 25.019531 27.222656 24.757812 27.214844 24.507812 C 27.414062 25.0625 27.296875 25.785156 26.472656 25.453125 C 26.304688 25.320312 26.191406 25.085938 26.191406 24.722656 C 26.191406 24.0625 26.515625 23.972656 26.773438 24.042969 Z M 26.144531 26.042969 C 27.148438 26.765625 28.675781 25.078125 27.671875 23.820312 C 27.570312 23.691406 27.445312 23.59375 27.304688 23.523438 C 26.84375 23.1875 26.117188 23.449219 25.773438 23.867188 C 25.59375 24.101562 25.476562 24.417969 25.476562 24.769531 C 25.476562 25.125 25.558594 25.480469 25.742188 25.714844 C 25.867188 25.871094 26.003906 25.976562 26.144531 26.042969 " fill-opacity="1" fill-rule="evenodd"/><path fill="#020202" d="M 53.226562 33.078125 C 53.058594 33.140625 49.480469 33.882812 50.484375 33.980469 C 50.46875 33.976562 50.363281 33.925781 50.359375 33.902344 C 50.421875 33.84375 52.902344 33.382812 53.304688 33.253906 C 57.882812 31.785156 65.457031 29.242188 67.417969 24.332031 C 64.976562 28.984375 57.871094 31.429688 53.226562 33.078125 " fill-opacity="1" fill-rule="evenodd"/><path fill="#020202" d="M 65.519531 29.71875 L 66.65625 28.359375 C 62.816406 32.203125 57.589844 34.664062 52.226562 35.429688 C 56.785156 35.199219 62.242188 33 65.519531 29.71875 " fill-opacity="1" fill-rule="evenodd"/><path fill="#020202" d="M 63.011719 32.691406 C 59.878906 35.171875 58.617188 35.292969 54.960938 36.492188 C 58.441406 35.902344 60.53125 35.324219 63.011719 32.691406 " fill-opacity="1" fill-rule="evenodd"/><path fill="#020202" d="M 53.824219 43.03125 C 57.273438 42.402344 58.34375 41.65625 61.269531 39.835938 C 58.652344 41.042969 56.597656 42.15625 53.824219 43.03125 " fill-opacity="1" fill-rule="evenodd"/><path fill="#020202" d="M 59.285156 43.585938 C 54.964844 46.402344 52.867188 46.074219 48.585938 47.667969 C 52.941406 46.785156 55.667969 46.6875 59.503906 43.917969 C 60.949219 42.875 61.183594 42.316406 62.101562 40.828125 C 61.101562 42 60.585938 42.746094 59.285156 43.585938 " fill-opacity="1" fill-rule="evenodd"/><path fill="#020202" d="M 30.285156 34.667969 C 28.320312 34.121094 29.304688 34.171875 27.320312 34.519531 C 29.273438 34.890625 28.289062 34.839844 30.285156 34.667969 " fill-opacity="1" fill-rule="evenodd"/><path fill="#020202" d="M 30.359375 37.402344 C 28.328125 36.839844 29.363281 36.898438 27.242188 37.25 C 29.339844 37.609375 28.304688 37.566406 30.359375 37.402344 " fill-opacity="1" fill-rule="evenodd"/><path fill="#020202" d="M 33.167969 41.890625 C 30.761719 41.835938 30.207031 41.886719 27.242188 41.890625 C 29.910156 42.238281 30.507812 42.238281 33.167969 41.890625 " fill-opacity="1" fill-rule="evenodd"/><path fill="#020202" d="M 27.242188 45.996094 C 29.378906 46.394531 34.710938 46.492188 36.816406 46.070312 C 34.765625 46.203125 29.058594 45.96875 27.242188 45.996094 " fill-opacity="1" fill-rule="evenodd"/><path fill="#020202" d="M 28.460938 48.199219 C 30.769531 48.707031 29.5625 48.605469 32.109375 48.425781 C 29.617188 47.933594 30.828125 47.980469 28.460938 48.199219 " fill-opacity="1" fill-rule="evenodd"/><path fill="#020202" d="M 41.601562 20.359375 C 42.773438 19.21875 42.15625 19.902344 43.191406 18.628906 L 42.304688 19.382812 C 38.453125 22.613281 35.964844 25.785156 32.410156 29.117188 C 35.964844 26.78125 38.570312 23.300781 41.601562 20.359375 " fill-opacity="1" fill-rule="evenodd"/><path fill="#020202" d="M 38.332031 26.683594 C 40.292969 24.757812 42.179688 23.070312 44.105469 21.058594 C 41.199219 23.082031 40.34375 23.726562 38.332031 26.683594 " fill-opacity="1" fill-rule="evenodd"/><path fill="#020202" d="M 41.445312 25.925781 C 42.78125 24.96875 42.214844 25.570312 43.117188 24.101562 C 41.710938 25.082031 42.257812 24.46875 41.445312 25.925781 " fill-opacity="1" fill-rule="evenodd"/><path fill="#020202" d="M 49.417969 29.957031 C 53.421875 29.90625 61.128906 26.214844 63.539062 22.835938 C 64.558594 21.410156 65.859375 19.570312 65.746094 17.792969 C 65.441406 19.625 64.339844 21.144531 63.226562 22.605469 C 60.742188 25.84375 53.316406 29.246094 49.417969 29.957031 " fill-opacity="1" fill-rule="evenodd"/><path fill="#020202" d="M 13.957031 34.289062 C 18 31.761719 21.625 28.464844 25.117188 25.242188 C 21.253906 27.847656 17.488281 31.210938 13.957031 34.289062 " fill-opacity="1" fill-rule="evenodd"/><path fill="#020202" d="M 23.371094 29.34375 C 21.3125 30.71875 20.480469 31.503906 18.738281 33.222656 C 21.019531 31.96875 21.691406 31.300781 23.371094 29.34375 " fill-opacity="1" fill-rule="evenodd"/><path fill="#020202" d="M 30.890625 23.339844 L 30.289062 23.433594 L 29.980469 23.953125 L 30.582031 23.882812 L 30.890625 23.339844 " fill-opacity="1" fill-rule="evenodd"/><path fill="#020202" d="M 9.960938 13.140625 C 9.648438 13.933594 9.34375 15.261719 10.234375 15.816406 C 10.109375 15.578125 9.988281 15.382812 9.945312 15.113281 C 9.527344 12.320312 13.515625 9.761719 15.554688 8.742188 C 13.074219 9.433594 10.984375 10.59375 9.960938 13.140625 " fill-opacity="1" fill-rule="evenodd"/><path fill="#020202" d="M 23.605469 6.386719 L 22.976562 6.253906 L 22.464844 6.613281 L 23.09375 6.78125 L 23.605469 6.386719 " fill-opacity="1" fill-rule="evenodd"/><path fill="#020202" d="M 56.175781 7.988281 C 54.066406 7.253906 52.292969 6.800781 50.105469 6.261719 C 46.292969 5.324219 38.34375 4.804688 34.535156 5.628906 C 38.65625 5.410156 46.019531 5.808594 50.015625 6.664062 C 51.914062 7.074219 54.300781 7.699219 56.175781 7.988281 " fill-opacity="1" fill-rule="evenodd"/><path fill="#020202" d="M 64.453125 16.421875 C 65.449219 14.445312 63.335938 11.132812 61.492188 10.414062 C 63.050781 11.84375 64.472656 14.253906 64.453125 16.421875 " fill-opacity="1" fill-rule="evenodd"/><path fill="#020202" d="M 37.726562 34.742188 C 40.46875 35.105469 46.246094 34.699219 48.660156 34.058594 C 45.6875 34.398438 40.65625 34.597656 37.726562 34.742188 " fill-opacity="1" fill-rule="evenodd"/><path fill="#020202" d="M 47.214844 30.261719 C 45.875 30.273438 45.722656 30.40625 44.484375 30.714844 C 45.691406 31.140625 46.167969 30.957031 47.214844 30.261719 " fill-opacity="1" fill-rule="evenodd"/><path fill="#020202" d="M 12.894531 14.066406 C 15.933594 12.378906 19.308594 9.46875 22.078125 7.265625 C 18.386719 9.289062 16.050781 11.390625 12.894531 14.066406 " fill-opacity="1" fill-rule="evenodd"/><path fill="#020202" d="M 25.882812 7.832031 C 21.933594 9.972656 18.351562 12.246094 15.019531 15.28125 C 18.554688 12.988281 22.589844 10.410156 25.882812 7.832031 " fill-opacity="1" fill-rule="evenodd"/><g fill="#000000" fill-opacity="1"><g transform="translate(20.705053, 69.875868)"><g><path d="M 13.40625 -14.984375 L 13.953125 -14.984375 L 14.125 -10.5 L 13.40625 -10.5 C 13.113281 -11.644531 12.5625 -12.539062 11.75 -13.1875 C 10.9375 -13.832031 9.953125 -14.15625 8.796875 -14.15625 C 8.003906 -14.15625 7.296875 -14 6.671875 -13.6875 C 6.046875 -13.382812 5.519531 -12.941406 5.09375 -12.359375 C 4.664062 -11.773438 4.335938 -11.0625 4.109375 -10.21875 C 3.890625 -9.375 3.78125 -8.421875 3.78125 -7.359375 C 3.78125 -5.265625 4.210938 -3.65625 5.078125 -2.53125 C 5.941406 -1.414062 7.195312 -0.859375 8.84375 -0.859375 C 11.351562 -0.859375 12.960938 -2.1875 13.671875 -4.84375 L 14.46875 -4.84375 L 14.46875 0 L 13.796875 0 L 13.34375 -1.53125 C 11.976562 -0.382812 10.332031 0.1875 8.40625 0.1875 C 7.300781 0.1875 6.300781 0.015625 5.40625 -0.328125 C 4.519531 -0.679688 3.765625 -1.175781 3.140625 -1.8125 C 2.515625 -2.457031 2.03125 -3.238281 1.6875 -4.15625 C 1.34375 -5.082031 1.171875 -6.109375 1.171875 -7.234375 C 1.171875 -8.410156 1.347656 -9.484375 1.703125 -10.453125 C 2.066406 -11.429688 2.578125 -12.269531 3.234375 -12.96875 C 3.890625 -13.675781 4.675781 -14.21875 5.59375 -14.59375 C 6.507812 -14.976562 7.519531 -15.171875 8.625 -15.171875 C 9.394531 -15.171875 10.125 -15.0625 10.8125 -14.84375 C 11.5 -14.625 12.242188 -14.265625 13.046875 -13.765625 Z M 13.40625 -14.984375 "/></g></g></g><g fill="#000000" fill-opacity="1"><g transform="translate(36.293524, 69.875868)"><g><path d="M 14.984375 -3.09375 C 14.984375 -2.601562 15.007812 -2.203125 15.0625 -1.890625 C 15.113281 -1.585938 15.210938 -1.351562 15.359375 -1.1875 C 15.503906 -1.03125 15.71875 -0.921875 16 -0.859375 C 16.28125 -0.796875 16.644531 -0.753906 17.09375 -0.734375 L 17.09375 0 L 10.796875 0 L 10.796875 -0.734375 C 11.253906 -0.753906 11.617188 -0.796875 11.890625 -0.859375 C 12.171875 -0.921875 12.390625 -1.03125 12.546875 -1.1875 C 12.703125 -1.34375 12.804688 -1.5625 12.859375 -1.84375 C 12.910156 -2.132812 12.9375 -2.503906 12.9375 -2.953125 L 12.9375 -7.171875 L 5.0625 -7.171875 L 5.0625 -3.09375 C 5.0625 -2.601562 5.085938 -2.203125 5.140625 -1.890625 C 5.191406 -1.585938 5.289062 -1.351562 5.4375 -1.1875 C 5.582031 -1.03125 5.796875 -0.921875 6.078125 -0.859375 C 6.359375 -0.796875 6.722656 -0.753906 7.171875 -0.734375 L 7.171875 0 L 0.875 0 L 0.875 -0.734375 C 1.332031 -0.753906 1.695312 -0.796875 1.96875 -0.859375 C 2.25 -0.921875 2.46875 -1.03125 2.625 -1.1875 C 2.78125 -1.34375 2.882812 -1.5625 2.9375 -1.84375 C 2.988281 -2.132812 3.015625 -2.503906 3.015625 -2.953125 L 3.015625 -12.015625 C 3.015625 -12.472656 2.988281 -12.84375 2.9375 -13.125 C 2.894531 -13.40625 2.804688 -13.625 2.671875 -13.78125 C 2.535156 -13.945312 2.335938 -14.054688 2.078125 -14.109375 C 1.816406 -14.171875 1.476562 -14.210938 1.0625 -14.234375 L 1.0625 -14.984375 L 6.984375 -14.984375 L 6.984375 -14.234375 C 6.566406 -14.222656 6.234375 -14.1875 5.984375 -14.125 C 5.734375 -14.0625 5.535156 -13.941406 5.390625 -13.765625 C 5.253906 -13.597656 5.164062 -13.363281 5.125 -13.0625 C 5.082031 -12.769531 5.0625 -12.378906 5.0625 -11.890625 L 5.0625 -8.15625 L 12.9375 -8.15625 L 12.9375 -12.015625 C 12.9375 -12.472656 12.910156 -12.84375 12.859375 -13.125 C 12.816406 -13.40625 12.726562 -13.625 12.59375 -13.78125 C 12.457031 -13.945312 12.257812 -14.054688 12 -14.109375 C 11.738281 -14.171875 11.398438 -14.210938 10.984375 -14.234375 L 10.984375 -14.984375 L 16.90625 -14.984375 L 16.90625 -14.234375 C 16.488281 -14.222656 16.15625 -14.1875 15.90625 -14.125 C 15.65625 -14.0625 15.457031 -13.941406 15.3125 -13.765625 C 15.175781 -13.597656 15.085938 -13.363281 15.046875 -13.0625 C 15.003906 -12.769531 14.984375 -12.378906 14.984375 -11.890625 Z M 14.984375 -3.09375 "/></g></g></g></svg>